<svg xmlns="http://www.w3.org/2000/svg" xmlns:xlink="http://www.w3.org/1999/xlink" width="40" zoomAndPan="magnify" viewBox="0 0 30 23.25" height="31" preserveAspectRatio="xMidYMid meet" version="1.0"><defs><clipPath id="63bdc5959d"><path d="M 0.46875 5.675781 L 12.664062 5.675781 L 12.664062 17.300781 L 0.46875 17.300781 Z M 0.46875 5.675781 " clip-rule="nonzero"/></clipPath><clipPath id="22052342a9"><path d="M 6.566406 5.675781 L 8.007812 10.117188 L 12.664062 10.117188 L 8.894531 12.859375 L 10.335938 17.300781 L 6.566406 14.554688 L 2.796875 17.300781 L 4.238281 12.859375 L 0.46875 10.117188 L 5.128906 10.117188 Z M 6.566406 5.675781 " clip-rule="nonzero"/></clipPath><clipPath id="eee9243517"><path d="M 20.402344 0.589844 L 29.53125 0.589844 L 29.53125 22.386719 L 20.402344 22.386719 Z M 20.402344 0.589844 " clip-rule="nonzero"/></clipPath><clipPath id="39ea486303"><path d="M 13.546875 0.589844 L 22.992188 0.589844 L 22.992188 22.386719 L 13.546875 22.386719 Z M 13.546875 0.589844 " clip-rule="nonzero"/></clipPath></defs><g clip-path="url(#63bdc5959d)"><g clip-path="url(#22052342a9)"><path fill="#053d7a" d="M 0.46875 5.675781 L 12.664062 5.675781 L 12.664062 17.300781 L 0.46875 17.300781 Z M 0.46875 5.675781 " fill-opacity="1" fill-rule="nonzero"/></g></g><g clip-path="url(#eee9243517)"><path fill="#9f1309" d="M 29.53125 0.597656 L 23.664062 22.382812 L 20.40625 22.382812 L 26.269531 0.597656 Z M 29.53125 0.597656 " fill-opacity="1" fill-rule="nonzero"/></g><g clip-path="url(#39ea486303)"><path fill="#053d7a" d="M 22.671875 0.597656 L 16.808594 22.382812 L 13.546875 22.382812 L 19.414062 0.597656 Z M 22.671875 0.597656 " fill-opacity="1" fill-rule="nonzero"/></g></svg>