<svg xmlns="http://www.w3.org/2000/svg" xmlns:xlink="http://www.w3.org/1999/xlink" width="254" zoomAndPan="magnify" viewBox="0 0 190.5 47.25" height="63" preserveAspectRatio="xMidYMid meet" version="1.0"><defs><g/><clipPath id="a2d5e25f3a"><path d="M 1.242188 16.839844 L 13.636719 16.839844 L 13.636719 28.652344 L 1.242188 28.652344 Z M 1.242188 16.839844 " clip-rule="nonzero"/></clipPath><clipPath id="080abb99f2"><path d="M 7.4375 16.839844 L 8.902344 21.351562 L 13.636719 21.351562 L 9.804688 24.140625 L 11.269531 28.652344 L 7.4375 25.863281 L 3.609375 28.652344 L 5.070312 24.140625 L 1.242188 21.351562 L 5.976562 21.351562 Z M 7.4375 16.839844 " clip-rule="nonzero"/></clipPath><clipPath id="de69be1136"><path d="M 21.5 11.671875 L 31 11.671875 L 31 33.820312 L 21.5 33.820312 Z M 21.5 11.671875 " clip-rule="nonzero"/></clipPath><clipPath id="0a1fd54097"><path d="M 14.53125 11.671875 L 24 11.671875 L 24 33.820312 L 14.53125 33.820312 Z M 14.53125 11.671875 " clip-rule="nonzero"/></clipPath></defs><g clip-path="url(#a2d5e25f3a)"><g clip-path="url(#080abb99f2)"><path fill="#053d7a" d="M 1.242188 16.839844 L 13.636719 16.839844 L 13.636719 28.652344 L 1.242188 28.652344 Z M 1.242188 16.839844 " fill-opacity="1" fill-rule="nonzero"/></g></g><g clip-path="url(#de69be1136)"><path fill="#9f1309" d="M 30.773438 11.679688 L 24.8125 33.820312 L 21.5 33.820312 L 27.457031 11.679688 Z M 30.773438 11.679688 " fill-opacity="1" fill-rule="nonzero"/></g><g clip-path="url(#0a1fd54097)"><path fill="#053d7a" d="M 23.804688 11.679688 L 17.847656 33.820312 L 14.53125 33.820312 L 20.492188 11.679688 Z M 23.804688 11.679688 " fill-opacity="1" fill-rule="nonzero"/></g><g fill="#053d7a" fill-opacity="1"><g transform="translate(31.405249, 28.761658)"><g><path d="M 15.875 -1.359375 C 16 -0.941406 16.0625 -0.46875 16.0625 0.0625 C 15.320312 0.0195312 14.257812 0 12.875 0 C 11.28125 0 10.140625 0.0195312 9.453125 0.0625 C 9.453125 -0.550781 9.503906 -1.023438 9.609375 -1.359375 C 9.984375 -1.441406 10.253906 -1.539062 10.421875 -1.65625 C 10.585938 -1.769531 10.671875 -1.9375 10.671875 -2.15625 C 10.671875 -2.332031 10.570312 -2.660156 10.375 -3.140625 L 9.84375 -4.390625 C 7.789062 -4.390625 5.910156 -4.335938 4.203125 -4.234375 L 3.90625 -3.46875 C 3.75 -3.03125 3.671875 -2.691406 3.671875 -2.453125 C 3.671875 -1.816406 4.039062 -1.453125 4.78125 -1.359375 C 4.894531 -0.992188 4.953125 -0.519531 4.953125 0.0625 C 4.421875 0.0195312 3.59375 0 2.46875 0 C 1.519531 0 0.828125 0.0195312 0.390625 0.0625 C 0.390625 -0.5 0.453125 -0.972656 0.578125 -1.359375 C 0.960938 -1.421875 1.273438 -1.609375 1.515625 -1.921875 C 1.753906 -2.242188 2.054688 -2.859375 2.421875 -3.765625 L 7.28125 -15.640625 C 7.5 -15.691406 7.71875 -15.722656 7.9375 -15.734375 C 8.15625 -15.753906 8.398438 -15.765625 8.671875 -15.765625 L 13.953125 -3.90625 C 14.273438 -3.175781 14.53125 -2.640625 14.71875 -2.296875 C 14.914062 -1.960938 15.097656 -1.726562 15.265625 -1.59375 C 15.441406 -1.46875 15.644531 -1.390625 15.875 -1.359375 Z M 9.265625 -5.6875 L 8.015625 -8.59375 C 7.617188 -9.5 7.257812 -10.488281 6.9375 -11.5625 C 6.625 -10.539062 6.285156 -9.5625 5.921875 -8.625 L 4.765625 -5.6875 Z M 9.265625 -5.6875 "/></g></g></g><g fill="#053d7a" fill-opacity="1"><g transform="translate(47.833594, 28.761658)"><g><path d="M 8.40625 -1.4375 C 9.394531 -1.4375 10.132812 -1.65625 10.625 -2.09375 C 11.125 -2.539062 11.539062 -3.328125 11.875 -4.453125 C 12.726562 -4.335938 13.320312 -4.117188 13.65625 -3.796875 C 13.320312 -2.734375 13.082031 -1.453125 12.9375 0.046875 C 11.363281 0.015625 9.578125 0 7.578125 0 C 5.347656 0 3.144531 0.0195312 0.96875 0.0625 C 0.96875 -0.550781 1.015625 -1.023438 1.109375 -1.359375 C 1.535156 -1.390625 1.859375 -1.46875 2.078125 -1.59375 C 2.304688 -1.726562 2.460938 -1.960938 2.546875 -2.296875 C 2.640625 -2.628906 2.6875 -3.132812 2.6875 -3.8125 L 2.6875 -11.953125 C 2.6875 -12.566406 2.640625 -13.023438 2.546875 -13.328125 C 2.460938 -13.640625 2.3125 -13.859375 2.09375 -13.984375 C 1.882812 -14.117188 1.554688 -14.210938 1.109375 -14.265625 C 1.015625 -14.628906 0.96875 -15.101562 0.96875 -15.6875 C 2.164062 -15.644531 3.320312 -15.625 4.4375 -15.625 C 5.84375 -15.625 7.003906 -15.644531 7.921875 -15.6875 C 7.921875 -15.03125 7.867188 -14.554688 7.765625 -14.265625 C 7.335938 -14.210938 7.015625 -14.125 6.796875 -14 C 6.578125 -13.875 6.425781 -13.65625 6.34375 -13.34375 C 6.257812 -13.03125 6.21875 -12.550781 6.21875 -11.90625 L 6.21875 -3.875 C 6.21875 -3.21875 6.269531 -2.710938 6.375 -2.359375 C 6.488281 -2.015625 6.675781 -1.773438 6.9375 -1.640625 C 7.207031 -1.503906 7.609375 -1.4375 8.140625 -1.4375 Z M 8.40625 -1.4375 "/></g></g></g><g fill="#053d7a" fill-opacity="1"><g transform="translate(61.8127, 28.761658)"><g><path d="M 8.40625 -1.4375 C 9.394531 -1.4375 10.132812 -1.65625 10.625 -2.09375 C 11.125 -2.539062 11.539062 -3.328125 11.875 -4.453125 C 12.726562 -4.335938 13.320312 -4.117188 13.65625 -3.796875 C 13.320312 -2.734375 13.082031 -1.453125 12.9375 0.046875 C 11.363281 0.015625 9.578125 0 7.578125 0 C 5.347656 0 3.144531 0.0195312 0.96875 0.0625 C 0.96875 -0.550781 1.015625 -1.023438 1.109375 -1.359375 C 1.535156 -1.390625 1.859375 -1.46875 2.078125 -1.59375 C 2.304688 -1.726562 2.460938 -1.960938 2.546875 -2.296875 C 2.640625 -2.628906 2.6875 -3.132812 2.6875 -3.8125 L 2.6875 -11.953125 C 2.6875 -12.566406 2.640625 -13.023438 2.546875 -13.328125 C 2.460938 -13.640625 2.3125 -13.859375 2.09375 -13.984375 C 1.882812 -14.117188 1.554688 -14.210938 1.109375 -14.265625 C 1.015625 -14.628906 0.96875 -15.101562 0.96875 -15.6875 C 2.164062 -15.644531 3.320312 -15.625 4.4375 -15.625 C 5.84375 -15.625 7.003906 -15.644531 7.921875 -15.6875 C 7.921875 -15.03125 7.867188 -14.554688 7.765625 -14.265625 C 7.335938 -14.210938 7.015625 -14.125 6.796875 -14 C 6.578125 -13.875 6.425781 -13.65625 6.34375 -13.34375 C 6.257812 -13.03125 6.21875 -12.550781 6.21875 -11.90625 L 6.21875 -3.875 C 6.21875 -3.21875 6.269531 -2.710938 6.375 -2.359375 C 6.488281 -2.015625 6.675781 -1.773438 6.9375 -1.640625 C 7.207031 -1.503906 7.609375 -1.4375 8.140625 -1.4375 Z M 8.40625 -1.4375 "/></g></g></g><g fill="#053d7a" fill-opacity="1"><g transform="translate(75.791805, 28.761658)"><g><path d="M 12.09375 -4.453125 C 12.9375 -4.335938 13.519531 -4.117188 13.84375 -3.796875 C 13.53125 -2.847656 13.289062 -1.566406 13.125 0.046875 C 11.582031 0.015625 9.734375 0 7.578125 0 C 5.347656 0 3.144531 0.0195312 0.96875 0.0625 C 0.96875 -0.550781 1.015625 -1.023438 1.109375 -1.359375 C 1.535156 -1.390625 1.859375 -1.46875 2.078125 -1.59375 C 2.304688 -1.726562 2.460938 -1.960938 2.546875 -2.296875 C 2.640625 -2.628906 2.6875 -3.132812 2.6875 -3.8125 L 2.6875 -11.953125 C 2.6875 -12.578125 2.640625 -13.039062 2.546875 -13.34375 C 2.460938 -13.644531 2.3125 -13.859375 2.09375 -13.984375 C 1.882812 -14.117188 1.554688 -14.210938 1.109375 -14.265625 C 1.015625 -14.554688 0.96875 -15.03125 0.96875 -15.6875 C 2.164062 -15.644531 3.898438 -15.625 6.171875 -15.625 C 9.316406 -15.625 11.4375 -15.644531 12.53125 -15.6875 C 12.5625 -15.039062 12.617188 -14.347656 12.703125 -13.609375 C 12.785156 -12.867188 12.890625 -12.257812 13.015625 -11.78125 C 12.546875 -11.550781 11.957031 -11.4375 11.25 -11.4375 C 11.113281 -12.332031 10.796875 -13.023438 10.296875 -13.515625 C 9.804688 -14.015625 8.96875 -14.265625 7.78125 -14.265625 L 6.1875 -14.265625 L 6.1875 -8.53125 L 6.859375 -8.53125 C 7.691406 -8.53125 8.257812 -8.648438 8.5625 -8.890625 C 8.863281 -9.128906 9.019531 -9.585938 9.03125 -10.265625 C 9.5 -10.410156 10.046875 -10.484375 10.671875 -10.484375 C 10.609375 -9.472656 10.578125 -8.597656 10.578125 -7.859375 C 10.578125 -7.015625 10.609375 -6.113281 10.671875 -5.15625 C 9.960938 -5.15625 9.429688 -5.21875 9.078125 -5.34375 C 9.015625 -6.03125 8.828125 -6.5 8.515625 -6.75 C 8.210938 -7 7.660156 -7.125 6.859375 -7.125 L 6.1875 -7.125 L 6.1875 -3.875 C 6.1875 -3.21875 6.242188 -2.710938 6.359375 -2.359375 C 6.484375 -2.015625 6.675781 -1.773438 6.9375 -1.640625 C 7.207031 -1.503906 7.609375 -1.4375 8.140625 -1.4375 L 8.40625 -1.4375 C 9.175781 -1.4375 9.789062 -1.539062 10.25 -1.75 C 10.71875 -1.957031 11.082031 -2.269531 11.34375 -2.6875 C 11.601562 -3.113281 11.851562 -3.703125 12.09375 -4.453125 Z M 12.09375 -4.453125 "/></g></g></g><g fill="#053d7a" fill-opacity="1"><g transform="translate(90.256139, 28.761658)"><g><path d="M 8.734375 0.203125 C 7.128906 0.203125 5.726562 -0.117188 4.53125 -0.765625 C 3.34375 -1.421875 2.425781 -2.363281 1.78125 -3.59375 C 1.132812 -4.832031 0.8125 -6.289062 0.8125 -7.96875 C 0.8125 -9.625 1.160156 -11.039062 1.859375 -12.21875 C 2.554688 -13.40625 3.519531 -14.300781 4.75 -14.90625 C 5.988281 -15.519531 7.394531 -15.828125 8.96875 -15.828125 C 9.976562 -15.828125 10.960938 -15.71875 11.921875 -15.5 C 12.878906 -15.289062 13.71875 -15.015625 14.4375 -14.671875 C 14.269531 -13.703125 14.1875 -12.507812 14.1875 -11.09375 C 13.757812 -10.90625 13.160156 -10.8125 12.390625 -10.8125 C 12.328125 -12.132812 12.003906 -13.0625 11.421875 -13.59375 C 10.847656 -14.125 10.035156 -14.390625 8.984375 -14.390625 C 7.984375 -14.390625 7.144531 -14.117188 6.46875 -13.578125 C 5.789062 -13.046875 5.289062 -12.332031 4.96875 -11.4375 C 4.65625 -10.539062 4.5 -9.5625 4.5 -8.5 C 4.5 -7.132812 4.679688 -5.90625 5.046875 -4.8125 C 5.410156 -3.726562 5.9375 -2.875 6.625 -2.25 C 7.320312 -1.625 8.148438 -1.3125 9.109375 -1.3125 C 9.753906 -1.3125 10.242188 -1.390625 10.578125 -1.546875 C 10.847656 -1.648438 11.039062 -1.8125 11.15625 -2.03125 C 11.28125 -2.257812 11.34375 -2.660156 11.34375 -3.234375 L 11.34375 -4.1875 C 11.34375 -4.769531 11.300781 -5.191406 11.21875 -5.453125 C 11.132812 -5.710938 10.972656 -5.890625 10.734375 -5.984375 C 10.492188 -6.085938 10.101562 -6.148438 9.5625 -6.171875 C 9.457031 -6.503906 9.40625 -6.988281 9.40625 -7.625 C 10.175781 -7.582031 11.1875 -7.5625 12.4375 -7.5625 C 13.476562 -7.5625 14.492188 -7.578125 15.484375 -7.609375 C 15.484375 -7.003906 15.4375 -6.523438 15.34375 -6.171875 C 15.050781 -6.148438 14.835938 -6.09375 14.703125 -6 C 14.578125 -5.914062 14.488281 -5.753906 14.4375 -5.515625 C 14.394531 -5.285156 14.375 -4.910156 14.375 -4.390625 L 14.375 -3.625 C 14.375 -3.144531 14.398438 -2.765625 14.453125 -2.484375 C 14.503906 -2.203125 14.601562 -1.898438 14.75 -1.578125 C 14.019531 -1.035156 13.128906 -0.601562 12.078125 -0.28125 C 11.035156 0.0390625 9.921875 0.203125 8.734375 0.203125 Z M 8.734375 0.203125 "/></g></g></g><g fill="#053d7a" fill-opacity="1"><g transform="translate(106.730695, 28.761658)"><g><path d="M 2.6875 -11.953125 C 2.6875 -12.578125 2.640625 -13.039062 2.546875 -13.34375 C 2.460938 -13.644531 2.316406 -13.859375 2.109375 -13.984375 C 1.898438 -14.117188 1.570312 -14.210938 1.125 -14.265625 C 1.019531 -14.597656 0.96875 -15.070312 0.96875 -15.6875 C 1.757812 -15.644531 2.9375 -15.625 4.5 -15.625 C 5.84375 -15.625 6.976562 -15.644531 7.90625 -15.6875 C 7.90625 -15.425781 7.894531 -15.171875 7.875 -14.921875 C 7.863281 -14.679688 7.816406 -14.460938 7.734375 -14.265625 C 7.304688 -14.210938 6.984375 -14.125 6.765625 -14 C 6.554688 -13.875 6.40625 -13.65625 6.3125 -13.34375 C 6.226562 -13.039062 6.1875 -12.578125 6.1875 -11.953125 L 6.1875 -3.703125 C 6.1875 -3.066406 6.234375 -2.585938 6.328125 -2.265625 C 6.421875 -1.953125 6.578125 -1.726562 6.796875 -1.59375 C 7.015625 -1.46875 7.335938 -1.390625 7.765625 -1.359375 C 7.859375 -1.035156 7.90625 -0.5625 7.90625 0.0625 C 7.113281 0.0195312 6.019531 0 4.625 0 C 3.144531 0 1.925781 0.0195312 0.96875 0.0625 C 0.96875 -0.488281 1.019531 -0.960938 1.125 -1.359375 C 1.5625 -1.390625 1.882812 -1.46875 2.09375 -1.59375 C 2.3125 -1.726562 2.460938 -1.953125 2.546875 -2.265625 C 2.640625 -2.585938 2.6875 -3.066406 2.6875 -3.703125 Z M 2.6875 -11.953125 "/></g></g></g><g fill="#053d7a" fill-opacity="1"><g transform="translate(115.603385, 28.761658)"><g><path d="M 15.875 -1.359375 C 16 -0.941406 16.0625 -0.46875 16.0625 0.0625 C 15.320312 0.0195312 14.257812 0 12.875 0 C 11.28125 0 10.140625 0.0195312 9.453125 0.0625 C 9.453125 -0.550781 9.503906 -1.023438 9.609375 -1.359375 C 9.984375 -1.441406 10.253906 -1.539062 10.421875 -1.65625 C 10.585938 -1.769531 10.671875 -1.9375 10.671875 -2.15625 C 10.671875 -2.332031 10.570312 -2.660156 10.375 -3.140625 L 9.84375 -4.390625 C 7.789062 -4.390625 5.910156 -4.335938 4.203125 -4.234375 L 3.90625 -3.46875 C 3.75 -3.03125 3.671875 -2.691406 3.671875 -2.453125 C 3.671875 -1.816406 4.039062 -1.453125 4.78125 -1.359375 C 4.894531 -0.992188 4.953125 -0.519531 4.953125 0.0625 C 4.421875 0.0195312 3.59375 0 2.46875 0 C 1.519531 0 0.828125 0.0195312 0.390625 0.0625 C 0.390625 -0.5 0.453125 -0.972656 0.578125 -1.359375 C 0.960938 -1.421875 1.273438 -1.609375 1.515625 -1.921875 C 1.753906 -2.242188 2.054688 -2.859375 2.421875 -3.765625 L 7.28125 -15.640625 C 7.5 -15.691406 7.71875 -15.722656 7.9375 -15.734375 C 8.15625 -15.753906 8.398438 -15.765625 8.671875 -15.765625 L 13.953125 -3.90625 C 14.273438 -3.175781 14.53125 -2.640625 14.71875 -2.296875 C 14.914062 -1.960938 15.097656 -1.726562 15.265625 -1.59375 C 15.441406 -1.46875 15.644531 -1.390625 15.875 -1.359375 Z M 9.265625 -5.6875 L 8.015625 -8.59375 C 7.617188 -9.5 7.257812 -10.488281 6.9375 -11.5625 C 6.625 -10.539062 6.285156 -9.5625 5.921875 -8.625 L 4.765625 -5.6875 Z M 9.265625 -5.6875 "/></g></g></g><g fill="#053d7a" fill-opacity="1"><g transform="translate(132.03173, 28.761658)"><g><path d="M 13.609375 -15.625 C 14.597656 -15.625 15.378906 -15.644531 15.953125 -15.6875 C 15.953125 -15.101562 15.90625 -14.628906 15.8125 -14.265625 C 15.425781 -14.234375 15.128906 -14.125 14.921875 -13.9375 C 14.722656 -13.75 14.582031 -13.425781 14.5 -12.96875 C 14.425781 -12.519531 14.390625 -11.847656 14.390625 -10.953125 L 14.390625 0 C 13.972656 0.125 13.4375 0.1875 12.78125 0.1875 L 4.15625 -11.28125 L 4.15625 -4.71875 C 4.15625 -3.820312 4.203125 -3.140625 4.296875 -2.671875 C 4.390625 -2.210938 4.554688 -1.882812 4.796875 -1.6875 C 5.035156 -1.5 5.394531 -1.390625 5.875 -1.359375 C 5.976562 -1.054688 6.03125 -0.582031 6.03125 0.0625 C 5.363281 0.0195312 4.5 0 3.4375 0 C 2.238281 0 1.347656 0.0195312 0.765625 0.0625 C 0.765625 -0.582031 0.816406 -1.054688 0.921875 -1.359375 C 1.390625 -1.390625 1.742188 -1.503906 1.984375 -1.703125 C 2.234375 -1.910156 2.410156 -2.242188 2.515625 -2.703125 C 2.628906 -3.160156 2.6875 -3.832031 2.6875 -4.71875 L 2.6875 -13.265625 L 2.453125 -13.5625 C 2.285156 -13.789062 2.097656 -13.953125 1.890625 -14.046875 C 1.691406 -14.140625 1.367188 -14.210938 0.921875 -14.265625 C 0.816406 -14.648438 0.765625 -15.125 0.765625 -15.6875 C 1.316406 -15.644531 2.140625 -15.625 3.234375 -15.625 C 4.316406 -15.625 5.035156 -15.644531 5.390625 -15.6875 L 12.890625 -5.546875 L 12.890625 -10.953125 C 12.890625 -11.847656 12.84375 -12.519531 12.75 -12.96875 C 12.664062 -13.414062 12.492188 -13.726562 12.234375 -13.90625 C 11.984375 -14.09375 11.601562 -14.210938 11.09375 -14.265625 C 11 -14.691406 10.953125 -15.164062 10.953125 -15.6875 C 11.628906 -15.644531 12.515625 -15.625 13.609375 -15.625 Z M 13.609375 -15.625 "/></g></g></g><g fill="#053d7a" fill-opacity="1"><g transform="translate(148.783558, 28.761658)"><g><path d="M 8.484375 0.203125 C 6.984375 0.203125 5.648438 -0.132812 4.484375 -0.8125 C 3.328125 -1.5 2.425781 -2.453125 1.78125 -3.671875 C 1.132812 -4.898438 0.8125 -6.3125 0.8125 -7.90625 C 0.8125 -9.582031 1.171875 -11.015625 1.890625 -12.203125 C 2.617188 -13.398438 3.578125 -14.300781 4.765625 -14.90625 C 5.960938 -15.519531 7.265625 -15.828125 8.671875 -15.828125 C 10.378906 -15.828125 12.070312 -15.425781 13.75 -14.625 C 13.582031 -13.65625 13.5 -12.460938 13.5 -11.046875 C 13.144531 -10.859375 12.539062 -10.765625 11.6875 -10.765625 C 11.65625 -12.085938 11.394531 -13.023438 10.90625 -13.578125 C 10.414062 -14.140625 9.707031 -14.421875 8.78125 -14.421875 C 7.332031 -14.421875 6.257812 -13.859375 5.5625 -12.734375 C 4.875 -11.609375 4.53125 -10.195312 4.53125 -8.5 C 4.53125 -6.46875 4.972656 -4.8125 5.859375 -3.53125 C 6.742188 -2.257812 8.019531 -1.625 9.6875 -1.625 C 10.300781 -1.625 10.9375 -1.722656 11.59375 -1.921875 C 12.257812 -2.117188 12.910156 -2.398438 13.546875 -2.765625 C 13.671875 -2.660156 13.78125 -2.507812 13.875 -2.3125 C 13.976562 -2.125 14.046875 -1.9375 14.078125 -1.75 C 13.304688 -1.125 12.46875 -0.640625 11.5625 -0.296875 C 10.664062 0.0351562 9.640625 0.203125 8.484375 0.203125 Z M 8.484375 0.203125 "/></g></g></g><g fill="#053d7a" fill-opacity="1"><g transform="translate(163.617585, 28.761658)"><g><path d="M 12.09375 -4.453125 C 12.9375 -4.335938 13.519531 -4.117188 13.84375 -3.796875 C 13.53125 -2.847656 13.289062 -1.566406 13.125 0.046875 C 11.582031 0.015625 9.734375 0 7.578125 0 C 5.347656 0 3.144531 0.0195312 0.96875 0.0625 C 0.96875 -0.550781 1.015625 -1.023438 1.109375 -1.359375 C 1.535156 -1.390625 1.859375 -1.46875 2.078125 -1.59375 C 2.304688 -1.726562 2.460938 -1.960938 2.546875 -2.296875 C 2.640625 -2.628906 2.6875 -3.132812 2.6875 -3.8125 L 2.6875 -11.953125 C 2.6875 -12.578125 2.640625 -13.039062 2.546875 -13.34375 C 2.460938 -13.644531 2.3125 -13.859375 2.09375 -13.984375 C 1.882812 -14.117188 1.554688 -14.210938 1.109375 -14.265625 C 1.015625 -14.554688 0.96875 -15.03125 0.96875 -15.6875 C 2.164062 -15.644531 3.898438 -15.625 6.171875 -15.625 C 9.316406 -15.625 11.4375 -15.644531 12.53125 -15.6875 C 12.5625 -15.039062 12.617188 -14.347656 12.703125 -13.609375 C 12.785156 -12.867188 12.890625 -12.257812 13.015625 -11.78125 C 12.546875 -11.550781 11.957031 -11.4375 11.25 -11.4375 C 11.113281 -12.332031 10.796875 -13.023438 10.296875 -13.515625 C 9.804688 -14.015625 8.96875 -14.265625 7.78125 -14.265625 L 6.1875 -14.265625 L 6.1875 -8.53125 L 6.859375 -8.53125 C 7.691406 -8.53125 8.257812 -8.648438 8.5625 -8.890625 C 8.863281 -9.128906 9.019531 -9.585938 9.03125 -10.265625 C 9.5 -10.410156 10.046875 -10.484375 10.671875 -10.484375 C 10.609375 -9.472656 10.578125 -8.597656 10.578125 -7.859375 C 10.578125 -7.015625 10.609375 -6.113281 10.671875 -5.15625 C 9.960938 -5.15625 9.429688 -5.21875 9.078125 -5.34375 C 9.015625 -6.03125 8.828125 -6.5 8.515625 -6.75 C 8.210938 -7 7.660156 -7.125 6.859375 -7.125 L 6.1875 -7.125 L 6.1875 -3.875 C 6.1875 -3.21875 6.242188 -2.710938 6.359375 -2.359375 C 6.484375 -2.015625 6.675781 -1.773438 6.9375 -1.640625 C 7.207031 -1.503906 7.609375 -1.4375 8.140625 -1.4375 L 8.40625 -1.4375 C 9.175781 -1.4375 9.789062 -1.539062 10.25 -1.75 C 10.71875 -1.957031 11.082031 -2.269531 11.34375 -2.6875 C 11.601562 -3.113281 11.851562 -3.703125 12.09375 -4.453125 Z M 12.09375 -4.453125 "/></g></g></g></svg>